<svg width="1000" height="1000" viewBox="0 0 1000 1000" fill="none" xmlns="http://www.w3.org/2000/svg">
<path d="M423.091 647.568L426.422 649.567L696.242 806.129L513.031 912.725C502.372 918.721 489.714 919.387 479.054 914.057L477.055 912.725L149.94 723.518C139.28 717.522 132.618 706.862 131.952 694.204V636.242C224.557 592.938 333.151 597.602 423.091 647.568ZM220.56 243.171L505.037 408.394L509.034 410.393C616.296 471.019 744.877 477.682 858.135 429.047V692.205C858.135 704.197 852.139 715.523 842.145 722.185L840.147 723.518L768.861 764.157L463.065 586.942C362.465 528.314 240.546 517.655 131.286 557.628V315.123C131.286 303.131 137.282 291.805 147.275 285.143L149.274 283.811L220.56 243.171ZM494.377 91.2725C499.707 91.2725 505.037 92.6049 510.366 95.2698L512.365 96.6023L839.48 284.477C850.14 290.473 856.802 301.133 857.468 313.791V349.101C760.866 403.065 642.278 403.065 545.676 349.101L541.679 346.436L292.512 201.865L476.389 95.936C481.053 93.2711 486.382 91.2725 492.378 91.2725H494.377ZM937.415 271.819C937.415 256.496 928.754 241.839 915.43 233.844L520.36 5.996C513.698 1.99867 506.369 0 498.374 0C491.046 0 483.051 1.99867 476.389 5.996L81.9853 233.844C68.6609 241.839 60 255.829 60 271.819V728.181C60 743.504 68.6609 758.161 81.9853 766.156L477.055 994.004C490.38 1002 507.035 1002 520.36 994.004L915.43 766.156C928.754 758.161 937.415 744.171 937.415 728.181V271.819Z" fill="url(#paint0_linear_1224_7)"/>
<defs>
<linearGradient id="paint0_linear_1224_7" x1="937.415" y1="4.58871e-05" x2="60" y2="1000.25" gradientUnits="userSpaceOnUse">
<stop stop-color="#00FFBF"/>
<stop offset="1" stop-color="#00BFFF"/>
</linearGradient>
</defs>
</svg>